<?xml version="1.0" standalone="no"?>
<!DOCTYPE svg PUBLIC "-//W3C//DTD SVG 20010904//EN"
 "http://www.w3.org/TR/2001/REC-SVG-20010904/DTD/svg10.dtd">
<svg version="1.0" xmlns="http://www.w3.org/2000/svg"
 width="640.000000pt" height="1280.000000pt" viewBox="0 0 640.000000 1280.000000"
 preserveAspectRatio="xMidYMid meet">
<metadata>
Created by potrace 1.15, written by Peter Selinger 2001-2017
</metadata>
<g transform="translate(0.000000,1280.000000) scale(0.100000,-0.100000)"
fill="#000000" stroke="none">
<path d="M486 12788 c4 -7 18 -26 30 -43 57 -78 124 -248 167 -425 37 -153 50
-221 116 -607 118 -689 185 -940 317 -1191 115 -219 253 -358 427 -430 83 -35
219 -62 311 -62 l61 0 242 -972 c161 -646 247 -1013 258 -1093 169 -1268 797
-3318 1490 -4865 172 -383 399 -839 547 -1095 41 -71 177 -340 302 -597 222
-458 228 -473 335 -785 60 -175 116 -338 125 -363 40 -108 106 -182 205 -229
82 -38 191 -37 278 3 70 32 148 107 183 175 32 63 52 174 44 240 -4 31 -56
200 -116 376 -61 176 -116 338 -123 360 -8 22 -37 193 -65 380 -150 1000 -156
1041 -196 1255 -216 1156 -706 2735 -1250 4028 -246 583 -565 1238 -755 1548
-59 97 -86 154 -272 564 -96 212 -267 590 -381 841 -113 251 -206 459 -206
463 0 4 21 31 47 61 210 237 250 589 113 980 -43 122 -136 300 -218 415 -81
115 -287 326 -397 406 -449 327 -1015 579 -1470 654 -142 24 -159 24 -149 8z"/>
</g>
</svg>
